<svg version="1.1" xmlns="http://www.w3.org/2000/svg" xmlns:xlink="http://www.w3.org/1999/xlink" width="550" height="414.78203230275517"><defs/><g transform="translate(0,0)"><g><rect fill="#FFFFFF" stroke="none" x="0" y="0" width="550" height="414.78203230275517"/></g><g transform="translate(0,0) matrix(1,0,0,1,10,88.0736835487437)"><g><g transform="translate(0,0) scale(1.7,1.7)"><g><path fill="#CBD8DE" stroke="none" d="M 0 0 L 100 0 Q 100 0 100 0 L 100 100 Q 100 100 100 100 L 0 100 Q 0 100 0 100 L 0 0 Q 0 0 0 0 Z"/><g transform="scale(0.5882352941176471,0.5882352941176471)"><path fill="none" stroke="none" d="M 0 0 L 170 0 Q 170 0 170 0 L 170 170 Q 170 170 170 170 L 0 170 Q 0 170 0 170 L 0 0 Q 0 0 0 0 Z"/><path fill="none" stroke="#7F9EAD" d="M 0 0 M 0 0 L 170 0 Q 170 0 170 0 L 170 170 Q 170 170 170 170 L 0 170 Q 0 170 0 170 L 0 0 Q 0 0 0 0 Z" stroke-miterlimit="10" stroke-width="2"/></g></g><g><g transform="scale(0.5882352941176471,0.5882352941176471)"><path fill="rgb(0,0,0)" stroke="none" d="M 3.4 3.4 L 3.4 164.9 L 164.9 164.9 L 164.9 5.1 L 5.1 5.1 Z" fill-opacity="0" opacity="0"/><path fill="none" stroke="#3C7626" d="M 3.4 3.4 M 3.4 3.4 L 3.4 7.4 M 3.4 7.4 M 3.4 9.4 L 3.4 13.4 M 3.4 13.4 M 3.4 15.4 L 3.4 19.4 M 3.4 19.4 M 3.4 21.4 L 3.4 25.4 M 3.4 25.4 M 3.4 27.4 L 3.4 31.4 M 3.4 31.4 M 3.4 33.4 L 3.4 37.4 M 3.4 37.4 M 3.4 39.4 L 3.4 43.4 M 3.4 43.4 M 3.4 45.4 L 3.4 49.4 M 3.4 49.4 M 3.4 51.4 L 3.4 55.4 M 3.4 55.4 M 3.4 57.4 L 3.4 61.4 M 3.4 61.4 M 3.4 63.4 L 3.4 67.4 M 3.4 67.4 M 3.4 69.4 L 3.4 73.4 M 3.4 73.4 M 3.4 75.4 L 3.4 79.4 M 3.4 79.4 M 3.4 81.4 L 3.4 85.4 M 3.4 85.4 M 3.4 87.4 L 3.4 91.4 M 3.4 91.4 M 3.4 93.4 L 3.4 97.4 M 3.4 97.4 M 3.4 99.4 L 3.4 103.4 M 3.4 103.4 M 3.4 105.4 L 3.4 109.4 M 3.4 109.4 M 3.4 111.4 L 3.4 115.4 M 3.4 115.4 M 3.4 117.4 L 3.4 121.4 M 3.4 121.4 M 3.4 123.4 L 3.4 127.4 M 3.4 127.4 M 3.4 129.4 L 3.4 133.4 M 3.4 133.4 M 3.4 135.4 L 3.4 139.4 M 3.4 139.4 M 3.4 141.4 L 3.4 145.4 M 3.4 145.4 M 3.4 147.4 L 3.4 151.4 M 3.4 151.4 M 3.4 153.4 L 3.4 157.4 M 3.4 157.4 M 3.4 159.4 L 3.4 163.4 M 3.4 163.4 M 3.9 164.9 L 7.8999999999999995 164.9 M 7.8999999999999995 164.9 M 9.899999999999999 164.9 L 13.899999999999999 164.9 M 13.899999999999999 164.9 M 15.899999999999999 164.9 L 19.9 164.9 M 19.9 164.9 M 21.9 164.9 L 25.9 164.9 M 25.9 164.9 M 27.9 164.9 L 31.9 164.9 M 31.9 164.9 M 33.9 164.9 L 37.9 164.9 M 37.9 164.9 M 39.9 164.9 L 43.9 164.9 M 43.9 164.9 M 45.9 164.9 L 49.9 164.9 M 49.9 164.9 M 51.9 164.9 L 55.9 164.9 M 55.9 164.9 M 57.9 164.9 L 61.9 164.9 M 61.9 164.9 M 63.9 164.9 L 67.9 164.9 M 67.9 164.9 M 69.9 164.9 L 73.9 164.9 M 73.9 164.9 M 75.9 164.9 L 79.9 164.9 M 79.9 164.9 M 81.9 164.9 L 85.9 164.9 M 85.9 164.9 M 87.9 164.9 L 91.9 164.9 M 91.9 164.9 M 93.9 164.9 L 97.9 164.9 M 97.9 164.9 M 99.9 164.9 L 103.9 164.9 M 103.9 164.9 M 105.9 164.9 L 109.9 164.9 M 109.9 164.9 M 111.9 164.9 L 115.9 164.9 M 115.9 164.9 M 117.9 164.9 L 121.9 164.9 M 121.9 164.9 M 123.9 164.9 L 127.9 164.9 M 127.9 164.9 M 129.9 164.9 L 133.9 164.9 M 133.9 164.9 M 135.9 164.9 L 139.9 164.9 M 139.9 164.9 M 141.9 164.9 L 145.9 164.9 M 145.9 164.9 M 147.9 164.9 L 151.9 164.9 M 151.9 164.9 M 153.9 164.9 L 157.9 164.9 M 157.9 164.9 M 159.9 164.9 L 163.9 164.9 M 163.9 164.9 M 164.9 163.9 L 164.9 159.9 M 164.9 159.9 M 164.9 157.9 L 164.9 153.9 M 164.9 153.9 M 164.9 151.9 L 164.9 147.9 M 164.9 147.9 M 164.9 145.9 L 164.9 141.9 M 164.9 141.9 M 164.9 139.9 L 164.9 135.9 M 164.9 135.9 M 164.9 133.9 L 164.9 129.9 M 164.9 129.9 M 164.9 127.9 L 164.9 123.9 M 164.9 123.9 M 164.9 121.9 L 164.9 117.9 M 164.9 117.9 M 164.9 115.9 L 164.9 111.9 M 164.9 111.9 M 164.9 109.9 L 164.9 105.9 M 164.9 105.9 M 164.9 103.9 L 164.9 99.9 M 164.9 99.9 M 164.9 97.9 L 164.9 93.9 M 164.9 93.9 M 164.9 91.9 L 164.9 87.9 M 164.9 87.9 M 164.9 85.9 L 164.9 81.9 M 164.9 81.9 M 164.9 79.9 L 164.9 75.9 M 164.9 75.9 M 164.9 73.9 L 164.9 69.9 M 164.9 69.9 M 164.9 67.9 L 164.9 63.900000000000006 M 164.9 63.900000000000006 M 164.9 61.900000000000006 L 164.9 57.900000000000006 M 164.9 57.900000000000006 M 164.9 55.900000000000006 L 164.9 51.900000000000006 M 164.9 51.900000000000006 M 164.9 49.900000000000006 L 164.9 45.900000000000006 M 164.9 45.900000000000006 M 164.9 43.900000000000006 L 164.9 39.900000000000006 M 164.9 39.900000000000006 M 164.9 37.900000000000006 L 164.9 33.900000000000006 M 164.9 33.900000000000006 M 164.9 31.900000000000006 L 164.9 27.900000000000006 M 164.9 27.900000000000006 M 164.9 25.900000000000006 L 164.9 21.900000000000006 M 164.9 21.900000000000006 M 164.9 19.900000000000006 L 164.9 15.900000000000006 M 164.9 15.900000000000006 M 164.9 13.900000000000006 L 164.9 9.900000000000006 M 164.9 9.900000000000006 M 164.9 7.900000000000006 L 164.9 5.1 L 163.70000000000002 5.1 M 163.70000000000002 5.1 M 161.70000000000002 5.1 L 157.70000000000002 5.1 M 157.70000000000002 5.1 M 155.70000000000002 5.1 L 151.70000000000002 5.1 M 151.70000000000002 5.1 M 149.70000000000002 5.1 L 145.70000000000002 5.1 M 145.70000000000002 5.1 M 143.70000000000002 5.1 L 139.70000000000002 5.1 M 139.70000000000002 5.1 M 137.70000000000002 5.1 L 133.70000000000002 5.1 M 133.70000000000002 5.1 M 131.70000000000002 5.1 L 127.70000000000002 5.1 M 127.70000000000002 5.1 M 125.70000000000002 5.1 L 121.70000000000002 5.1 M 121.70000000000002 5.1 M 119.70000000000002 5.1 L 115.70000000000002 5.1 M 115.70000000000002 5.1 M 113.70000000000002 5.1 L 109.70000000000002 5.1 M 109.70000000000002 5.1 M 107.70000000000002 5.1 L 103.70000000000002 5.1 M 103.70000000000002 5.1 M 101.70000000000002 5.1 L 97.70000000000002 5.1 M 97.70000000000002 5.1 M 95.70000000000002 5.1 L 91.70000000000002 5.1 M 91.70000000000002 5.1 M 89.70000000000002 5.1 L 85.70000000000002 5.1 M 85.70000000000002 5.1 M 83.70000000000002 5.1 L 79.70000000000002 5.1 M 79.70000000000002 5.1 M 77.70000000000002 5.1 L 73.70000000000002 5.1 M 73.70000000000002 5.1 M 71.70000000000002 5.1 L 67.70000000000002 5.1 M 67.70000000000002 5.1 M 65.70000000000002 5.1 L 61.70000000000002 5.1 M 61.70000000000002 5.1 M 59.70000000000002 5.1 L 55.70000000000002 5.1 M 55.70000000000002 5.1 M 53.70000000000002 5.1 L 49.70000000000002 5.1 M 49.70000000000002 5.1 M 47.70000000000002 5.1 L 43.70000000000002 5.1 M 43.70000000000002 5.1 M 41.70000000000002 5.1 L 37.70000000000002 5.1 M 37.70000000000002 5.1 M 35.70000000000002 5.1 L 31.700000000000017 5.1 M 31.700000000000017 5.1 M 29.700000000000017 5.1 L 25.700000000000017 5.1 M 25.700000000000017 5.1 M 23.700000000000017 5.1 L 19.700000000000017 5.1 M 19.700000000000017 5.1 M 17.700000000000017 5.1 L 13.700000000000017 5.1 M 13.700000000000017 5.1 M 11.700000000000017 5.1 L 7.700000000000017 5.1 M 7.700000000000017 5.1 M 5.700000000000017 5.1 L 5.1 5.1 Z" stroke-miterlimit="10" stroke-width="2" opacity="0"/></g></g></g></g></g><g transform="translate(0,0) matrix(0,1,-1,0,105,13.073683548743702)"><g><g transform="translate(0,0) scale(0.6,0.2)"><g><g transform="scale(1.6666666666666667,5)"><path fill="#CCC7BD" stroke="none" d="M 0 10 L 10 0 L 10 6 L 49.99999999999999 6 L 49.99999999999999 0 L 60 10 L 49.99999999999999 20 L 49.99999999999999 14 L 10 14 L 10 20 L 0 10 Z"/><path fill="none" stroke="#7E725A" d="M 0 10 M 0 10 L 10 0 L 10 6 L 49.99999999999999 6 L 49.99999999999999 0 L 60 10 L 49.99999999999999 20 L 49.99999999999999 14 L 10 14 L 10 20 L 0 10 Z" stroke-miterlimit="10" stroke-width="2"/></g></g></g></g></g><g transform="translate(0,0) matrix(1,0,0,1,28.5,118.0736835487437)"><g><g transform="translate(0,0) scale(0.63,0.4)"><g><path fill="#EEEEEE" stroke="none" d="M 100 50 A 50 50 0 1 0 99.99997500000207 50.04999999166668 Z"/><g transform="scale(1.5873015873015872,2.5)"><path fill="none" stroke="#434343" d="M 31.5 0 M 31.5 0 C 48.89696805 0 63 8.954306 63 20 C 63 31.045693999999997 48.89696805 40 31.5 40 C 14.103031950000002 40 0 31.045693999999997 0 20 C 0 8.954306 14.103031950000002 0 31.5 0 Z" stroke-miterlimit="10" stroke-width="2"/></g></g></g></g></g><g transform="translate(0,0) matrix(1,0,0,1,85,173.0736835487437)"><g><g transform="translate(0,0) scale(0.72,0.583333333333334)"><g><g transform="scale(1.3888888888888888,1.7142857142857122)"><path fill="#b6d7a8" stroke="none" d="M 36 0 L 72 21.38889083333336 L 59.9999976 58.33333333333341 L 12.0000024 58.33333333333341 L 0 21.38889083333336 L 36 0 Z"/><path fill="none" stroke="#434343" d="M 36 0 M 36 0 L 72 21.38889083333336 L 59.9999976 58.33333333333341 L 12.0000024 58.33333333333341 L 0 21.38889083333336 L 36 0 Z" stroke-miterlimit="10" stroke-width="2"/></g></g></g></g></g><g transform="translate(0,0) matrix(1,0,0,1,107,113.0736835487437)"><g><g transform="translate(0,0) scale(0.5,0.35)"><g><g transform="scale(2,2.857142857142857)"><path fill="#ea9999" stroke="none" d="M 0 0 L 50 35 L 0 35 L 0 0 Z"/><path fill="none" stroke="#434343" d="M 0 0 M 0 0 L 50 35 L 0 35 L 0 0 Z" stroke-miterlimit="10" stroke-width="2"/></g></g></g></g></g><g transform="translate(0,0) matrix(-0.2588190451025209,0.9659258262890683,-0.9659258262890683,-0.2588190451025209,78.37417808762171,185.95487118081112)"><g><g transform="translate(0,0) scale(0.5,0.35)"><g><g transform="scale(2,2.857142857142857)"><path fill="#6fa8dc" stroke="none" d="M 0 0 L 50 35 L 0 35 L 0 0 Z"/><path fill="none" stroke="#434343" d="M 0 0 M 0 0 L 50 35 L 0 35 L 0 0 Z" stroke-miterlimit="10" stroke-width="2"/></g></g></g></g></g><g transform="translate(0,0) matrix(1,0,0,1,280,134.28203230275517)"><g><g transform="translate(0,0) scale(0.7,0.7)"><g><path fill="#CBD8DE" stroke="none" d="M 0 0 L 100 0 Q 100 0 100 0 L 100 100 Q 100 100 100 100 L 0 100 Q 0 100 0 100 L 0 0 Q 0 0 0 0 Z"/><g transform="scale(1.4285714285714286,1.4285714285714286)"><path fill="none" stroke="none" d="M 0 0 L 70 0 Q 70 0 70 0 L 70 70 Q 70 70 70 70 L 0 70 Q 0 70 0 70 L 0 0 Q 0 0 0 0 Z"/><path fill="none" stroke="#7F9EAD" d="M 0 0 M 0 0 L 70 0 Q 70 0 70 0 L 70 70 Q 70 70 70 70 L 0 70 Q 0 70 0 70 L 0 0 Q 0 0 0 0 Z" stroke-miterlimit="10" stroke-width="2"/></g></g><g><g transform="scale(1.4285714285714286,1.4285714285714286)"><path fill="rgb(0,0,0)" stroke="none" d="M 1.4 1.4 L 1.4 67.89999999999999 L 67.89999999999999 67.89999999999999 L 67.89999999999999 2.0999999999999996 L 2.0999999999999996 2.0999999999999996 Z" fill-opacity="0" opacity="0"/><path fill="none" stroke="#3C7626" d="M 1.4 1.4 M 1.4 1.4 L 1.4 5.4 M 1.4 5.4 M 1.4 7.4 L 1.4 11.4 M 1.4 11.4 M 1.4 13.4 L 1.4 17.4 M 1.4 17.4 M 1.4 19.4 L 1.4 23.4 M 1.4 23.4 M 1.4 25.4 L 1.4 29.4 M 1.4 29.4 M 1.4 31.4 L 1.4 35.4 M 1.4 35.4 M 1.4 37.4 L 1.4 41.4 M 1.4 41.4 M 1.4 43.4 L 1.4 47.4 M 1.4 47.4 M 1.4 49.4 L 1.4 53.4 M 1.4 53.4 M 1.4 55.4 L 1.4 59.4 M 1.4 59.4 M 1.4 61.4 L 1.4 65.4 M 1.4 65.4 M 1.4 67.4 L 1.4 67.89999999999999 L 4.900000000000015 67.89999999999999 M 4.900000000000015 67.89999999999999 M 6.900000000000015 67.89999999999999 L 10.900000000000015 67.89999999999999 M 10.900000000000015 67.89999999999999 M 12.900000000000015 67.89999999999999 L 16.900000000000013 67.89999999999999 M 16.900000000000013 67.89999999999999 M 18.900000000000013 67.89999999999999 L 22.900000000000013 67.89999999999999 M 22.900000000000013 67.89999999999999 M 24.900000000000013 67.89999999999999 L 28.900000000000013 67.89999999999999 M 28.900000000000013 67.89999999999999 M 30.900000000000013 67.89999999999999 L 34.90000000000001 67.89999999999999 M 34.90000000000001 67.89999999999999 M 36.90000000000001 67.89999999999999 L 40.90000000000001 67.89999999999999 M 40.90000000000001 67.89999999999999 M 42.90000000000001 67.89999999999999 L 46.90000000000001 67.89999999999999 M 46.90000000000001 67.89999999999999 M 48.90000000000001 67.89999999999999 L 52.90000000000001 67.89999999999999 M 52.90000000000001 67.89999999999999 M 54.90000000000001 67.89999999999999 L 58.90000000000001 67.89999999999999 M 58.90000000000001 67.89999999999999 M 60.90000000000001 67.89999999999999 L 64.9 67.89999999999999 M 64.9 67.89999999999999 M 66.9 67.89999999999999 L 67.89999999999999 67.89999999999999 L 67.89999999999999 64.89999999999998 M 67.89999999999999 64.89999999999998 M 67.89999999999999 62.89999999999998 L 67.89999999999999 58.89999999999998 M 67.89999999999999 58.89999999999998 M 67.89999999999999 56.89999999999998 L 67.89999999999999 52.89999999999998 M 67.89999999999999 52.89999999999998 M 67.89999999999999 50.89999999999998 L 67.89999999999999 46.89999999999998 M 67.89999999999999 46.89999999999998 M 67.89999999999999 44.89999999999998 L 67.89999999999999 40.89999999999998 M 67.89999999999999 40.89999999999998 M 67.89999999999999 38.89999999999998 L 67.89999999999999 34.89999999999998 M 67.89999999999999 34.89999999999998 M 67.89999999999999 32.89999999999998 L 67.89999999999999 28.899999999999977 M 67.89999999999999 28.899999999999977 M 67.89999999999999 26.899999999999977 L 67.89999999999999 22.899999999999977 M 67.89999999999999 22.899999999999977 M 67.89999999999999 20.899999999999977 L 67.89999999999999 16.899999999999977 M 67.89999999999999 16.899999999999977 M 67.89999999999999 14.899999999999977 L 67.89999999999999 10.899999999999977 M 67.89999999999999 10.899999999999977 M 67.89999999999999 8.899999999999977 L 67.89999999999999 4.899999999999977 M 67.89999999999999 4.899999999999977 M 67.89999999999999 2.8999999999999773 L 67.89999999999999 2.0999999999999996 L 64.69999999999997 2.0999999999999996 M 64.69999999999997 2.0999999999999996 M 62.699999999999974 2.0999999999999996 L 58.699999999999974 2.0999999999999996 M 58.699999999999974 2.0999999999999996 M 56.699999999999974 2.0999999999999996 L 52.699999999999974 2.0999999999999996 M 52.699999999999974 2.0999999999999996 M 50.699999999999974 2.0999999999999996 L 46.699999999999974 2.0999999999999996 M 46.699999999999974 2.0999999999999996 M 44.699999999999974 2.0999999999999996 L 40.699999999999974 2.0999999999999996 M 40.699999999999974 2.0999999999999996 M 38.699999999999974 2.0999999999999996 L 34.699999999999974 2.0999999999999996 M 34.699999999999974 2.0999999999999996 M 32.699999999999974 2.0999999999999996 L 28.699999999999974 2.0999999999999996 M 28.699999999999974 2.0999999999999996 M 26.699999999999974 2.0999999999999996 L 22.699999999999974 2.0999999999999996 M 22.699999999999974 2.0999999999999996 M 20.699999999999974 2.0999999999999996 L 16.699999999999974 2.0999999999999996 M 16.699999999999974 2.0999999999999996 M 14.699999999999974 2.0999999999999996 L 10.699999999999974 2.0999999999999996 M 10.699999999999974 2.0999999999999996 M 8.699999999999974 2.0999999999999996 L 4.699999999999974 2.0999999999999996 M 4.699999999999974 2.0999999999999996 M 2.6999999999999744 2.0999999999999996 L 2.0999999999999996 2.0999999999999996 Z" stroke-miterlimit="10" stroke-width="2" opacity="0"/></g></g></g></g></g><g transform="translate(0,0) matrix(1,0,0,1,370,134.28203230275517)"><g><g transform="translate(0,0) scale(0.7,0.7)"><g><path fill="#CBD8DE" stroke="none" d="M 0 0 L 100 0 Q 100 0 100 0 L 100 100 Q 100 100 100 100 L 0 100 Q 0 100 0 100 L 0 0 Q 0 0 0 0 Z"/><g transform="scale(1.4285714285714286,1.4285714285714286)"><path fill="none" stroke="none" d="M 0 0 L 70 0 Q 70 0 70 0 L 70 70 Q 70 70 70 70 L 0 70 Q 0 70 0 70 L 0 0 Q 0 0 0 0 Z"/><path fill="none" stroke="#7F9EAD" d="M 0 0 M 0 0 L 70 0 Q 70 0 70 0 L 70 70 Q 70 70 70 70 L 0 70 Q 0 70 0 70 L 0 0 Q 0 0 0 0 Z" stroke-miterlimit="10" stroke-width="2"/></g></g><g><g transform="scale(1.4285714285714286,1.4285714285714286)"><path fill="rgb(0,0,0)" stroke="none" d="M 1.4 1.4 L 1.4 67.89999999999999 L 67.89999999999999 67.89999999999999 L 67.89999999999999 2.0999999999999996 L 2.0999999999999996 2.0999999999999996 Z" fill-opacity="0" opacity="0"/><path fill="none" stroke="#3C7626" d="M 1.4 1.4 M 1.4 1.4 L 1.4 5.4 M 1.4 5.4 M 1.4 7.4 L 1.4 11.4 M 1.4 11.4 M 1.4 13.4 L 1.4 17.4 M 1.4 17.4 M 1.4 19.4 L 1.4 23.4 M 1.4 23.4 M 1.4 25.4 L 1.4 29.4 M 1.4 29.4 M 1.4 31.4 L 1.4 35.4 M 1.4 35.4 M 1.4 37.4 L 1.4 41.4 M 1.4 41.4 M 1.4 43.4 L 1.4 47.4 M 1.4 47.4 M 1.4 49.4 L 1.4 53.4 M 1.4 53.4 M 1.4 55.4 L 1.4 59.4 M 1.4 59.4 M 1.4 61.4 L 1.4 65.4 M 1.4 65.4 M 1.4 67.4 L 1.4 67.89999999999999 L 4.900000000000015 67.89999999999999 M 4.900000000000015 67.89999999999999 M 6.900000000000015 67.89999999999999 L 10.900000000000015 67.89999999999999 M 10.900000000000015 67.89999999999999 M 12.900000000000015 67.89999999999999 L 16.900000000000013 67.89999999999999 M 16.900000000000013 67.89999999999999 M 18.900000000000013 67.89999999999999 L 22.900000000000013 67.89999999999999 M 22.900000000000013 67.89999999999999 M 24.900000000000013 67.89999999999999 L 28.900000000000013 67.89999999999999 M 28.900000000000013 67.89999999999999 M 30.900000000000013 67.89999999999999 L 34.90000000000001 67.89999999999999 M 34.90000000000001 67.89999999999999 M 36.90000000000001 67.89999999999999 L 40.90000000000001 67.89999999999999 M 40.90000000000001 67.89999999999999 M 42.90000000000001 67.89999999999999 L 46.90000000000001 67.89999999999999 M 46.90000000000001 67.89999999999999 M 48.90000000000001 67.89999999999999 L 52.90000000000001 67.89999999999999 M 52.90000000000001 67.89999999999999 M 54.90000000000001 67.89999999999999 L 58.90000000000001 67.89999999999999 M 58.90000000000001 67.89999999999999 M 60.90000000000001 67.89999999999999 L 64.9 67.89999999999999 M 64.9 67.89999999999999 M 66.9 67.89999999999999 L 67.89999999999999 67.89999999999999 L 67.89999999999999 64.89999999999998 M 67.89999999999999 64.89999999999998 M 67.89999999999999 62.89999999999998 L 67.89999999999999 58.89999999999998 M 67.89999999999999 58.89999999999998 M 67.89999999999999 56.89999999999998 L 67.89999999999999 52.89999999999998 M 67.89999999999999 52.89999999999998 M 67.89999999999999 50.89999999999998 L 67.89999999999999 46.89999999999998 M 67.89999999999999 46.89999999999998 M 67.89999999999999 44.89999999999998 L 67.89999999999999 40.89999999999998 M 67.89999999999999 40.89999999999998 M 67.89999999999999 38.89999999999998 L 67.89999999999999 34.89999999999998 M 67.89999999999999 34.89999999999998 M 67.89999999999999 32.89999999999998 L 67.89999999999999 28.899999999999977 M 67.89999999999999 28.899999999999977 M 67.89999999999999 26.899999999999977 L 67.89999999999999 22.899999999999977 M 67.89999999999999 22.899999999999977 M 67.89999999999999 20.899999999999977 L 67.89999999999999 16.899999999999977 M 67.89999999999999 16.899999999999977 M 67.89999999999999 14.899999999999977 L 67.89999999999999 10.899999999999977 M 67.89999999999999 10.899999999999977 M 67.89999999999999 8.899999999999977 L 67.89999999999999 4.899999999999977 M 67.89999999999999 4.899999999999977 M 67.89999999999999 2.8999999999999773 L 67.89999999999999 2.0999999999999996 L 64.69999999999997 2.0999999999999996 M 64.69999999999997 2.0999999999999996 M 62.699999999999974 2.0999999999999996 L 58.699999999999974 2.0999999999999996 M 58.699999999999974 2.0999999999999996 M 56.699999999999974 2.0999999999999996 L 52.699999999999974 2.0999999999999996 M 52.699999999999974 2.0999999999999996 M 50.699999999999974 2.0999999999999996 L 46.699999999999974 2.0999999999999996 M 46.699999999999974 2.0999999999999996 M 44.699999999999974 2.0999999999999996 L 40.699999999999974 2.0999999999999996 M 40.699999999999974 2.0999999999999996 M 38.699999999999974 2.0999999999999996 L 34.699999999999974 2.0999999999999996 M 34.699999999999974 2.0999999999999996 M 32.699999999999974 2.0999999999999996 L 28.699999999999974 2.0999999999999996 M 28.699999999999974 2.0999999999999996 M 26.699999999999974 2.0999999999999996 L 22.699999999999974 2.0999999999999996 M 22.699999999999974 2.0999999999999996 M 20.699999999999974 2.0999999999999996 L 16.699999999999974 2.0999999999999996 M 16.699999999999974 2.0999999999999996 M 14.699999999999974 2.0999999999999996 L 10.699999999999974 2.0999999999999996 M 10.699999999999974 2.0999999999999996 M 8.699999999999974 2.0999999999999996 L 4.699999999999974 2.0999999999999996 M 4.699999999999974 2.0999999999999996 M 2.6999999999999744 2.0999999999999996 L 2.0999999999999996 2.0999999999999996 Z" stroke-miterlimit="10" stroke-width="2" opacity="0"/></g></g></g></g></g><g transform="translate(0,0) matrix(1,0,0,1,460,134.28203230275517)"><g><g transform="translate(0,0) scale(0.7,0.7)"><g><path fill="#CBD8DE" stroke="none" d="M 0 0 L 100 0 Q 100 0 100 0 L 100 100 Q 100 100 100 100 L 0 100 Q 0 100 0 100 L 0 0 Q 0 0 0 0 Z"/><g transform="scale(1.4285714285714286,1.4285714285714286)"><path fill="none" stroke="none" d="M 0 0 L 70 0 Q 70 0 70 0 L 70 70 Q 70 70 70 70 L 0 70 Q 0 70 0 70 L 0 0 Q 0 0 0 0 Z"/><path fill="none" stroke="#7F9EAD" d="M 0 0 M 0 0 L 70 0 Q 70 0 70 0 L 70 70 Q 70 70 70 70 L 0 70 Q 0 70 0 70 L 0 0 Q 0 0 0 0 Z" stroke-miterlimit="10" stroke-width="2"/></g></g><g><g transform="scale(1.4285714285714286,1.4285714285714286)"><path fill="rgb(0,0,0)" stroke="none" d="M 1.4 1.4 L 1.4 67.89999999999999 L 67.89999999999999 67.89999999999999 L 67.89999999999999 2.0999999999999996 L 2.0999999999999996 2.0999999999999996 Z" fill-opacity="0" opacity="0"/><path fill="none" stroke="#3C7626" d="M 1.4 1.4 M 1.4 1.4 L 1.4 5.4 M 1.4 5.4 M 1.4 7.4 L 1.4 11.4 M 1.4 11.4 M 1.4 13.4 L 1.4 17.4 M 1.4 17.4 M 1.4 19.4 L 1.4 23.4 M 1.4 23.4 M 1.4 25.4 L 1.4 29.4 M 1.4 29.4 M 1.4 31.4 L 1.4 35.4 M 1.4 35.4 M 1.4 37.4 L 1.4 41.4 M 1.4 41.4 M 1.4 43.4 L 1.4 47.4 M 1.4 47.4 M 1.4 49.4 L 1.4 53.4 M 1.4 53.4 M 1.4 55.4 L 1.4 59.4 M 1.4 59.4 M 1.4 61.4 L 1.4 65.4 M 1.4 65.4 M 1.4 67.4 L 1.4 67.89999999999999 L 4.900000000000015 67.89999999999999 M 4.900000000000015 67.89999999999999 M 6.900000000000015 67.89999999999999 L 10.900000000000015 67.89999999999999 M 10.900000000000015 67.89999999999999 M 12.900000000000015 67.89999999999999 L 16.900000000000013 67.89999999999999 M 16.900000000000013 67.89999999999999 M 18.900000000000013 67.89999999999999 L 22.900000000000013 67.89999999999999 M 22.900000000000013 67.89999999999999 M 24.900000000000013 67.89999999999999 L 28.900000000000013 67.89999999999999 M 28.900000000000013 67.89999999999999 M 30.900000000000013 67.89999999999999 L 34.90000000000001 67.89999999999999 M 34.90000000000001 67.89999999999999 M 36.90000000000001 67.89999999999999 L 40.90000000000001 67.89999999999999 M 40.90000000000001 67.89999999999999 M 42.90000000000001 67.89999999999999 L 46.90000000000001 67.89999999999999 M 46.90000000000001 67.89999999999999 M 48.90000000000001 67.89999999999999 L 52.90000000000001 67.89999999999999 M 52.90000000000001 67.89999999999999 M 54.90000000000001 67.89999999999999 L 58.90000000000001 67.89999999999999 M 58.90000000000001 67.89999999999999 M 60.90000000000001 67.89999999999999 L 64.9 67.89999999999999 M 64.9 67.89999999999999 M 66.9 67.89999999999999 L 67.89999999999999 67.89999999999999 L 67.89999999999999 64.89999999999998 M 67.89999999999999 64.89999999999998 M 67.89999999999999 62.89999999999998 L 67.89999999999999 58.89999999999998 M 67.89999999999999 58.89999999999998 M 67.89999999999999 56.89999999999998 L 67.89999999999999 52.89999999999998 M 67.89999999999999 52.89999999999998 M 67.89999999999999 50.89999999999998 L 67.89999999999999 46.89999999999998 M 67.89999999999999 46.89999999999998 M 67.89999999999999 44.89999999999998 L 67.89999999999999 40.89999999999998 M 67.89999999999999 40.89999999999998 M 67.89999999999999 38.89999999999998 L 67.89999999999999 34.89999999999998 M 67.89999999999999 34.89999999999998 M 67.89999999999999 32.89999999999998 L 67.89999999999999 28.899999999999977 M 67.89999999999999 28.899999999999977 M 67.89999999999999 26.899999999999977 L 67.89999999999999 22.899999999999977 M 67.89999999999999 22.899999999999977 M 67.89999999999999 20.899999999999977 L 67.89999999999999 16.899999999999977 M 67.89999999999999 16.899999999999977 M 67.89999999999999 14.899999999999977 L 67.89999999999999 10.899999999999977 M 67.89999999999999 10.899999999999977 M 67.89999999999999 8.899999999999977 L 67.89999999999999 4.899999999999977 M 67.89999999999999 4.899999999999977 M 67.89999999999999 2.8999999999999773 L 67.89999999999999 2.0999999999999996 L 64.69999999999997 2.0999999999999996 M 64.69999999999997 2.0999999999999996 M 62.699999999999974 2.0999999999999996 L 58.699999999999974 2.0999999999999996 M 58.699999999999974 2.0999999999999996 M 56.699999999999974 2.0999999999999996 L 52.699999999999974 2.0999999999999996 M 52.699999999999974 2.0999999999999996 M 50.699999999999974 2.0999999999999996 L 46.699999999999974 2.0999999999999996 M 46.699999999999974 2.0999999999999996 M 44.699999999999974 2.0999999999999996 L 40.699999999999974 2.0999999999999996 M 40.699999999999974 2.0999999999999996 M 38.699999999999974 2.0999999999999996 L 34.699999999999974 2.0999999999999996 M 34.699999999999974 2.0999999999999996 M 32.699999999999974 2.0999999999999996 L 28.699999999999974 2.0999999999999996 M 28.699999999999974 2.0999999999999996 M 26.699999999999974 2.0999999999999996 L 22.699999999999974 2.0999999999999996 M 22.699999999999974 2.0999999999999996 M 20.699999999999974 2.0999999999999996 L 16.699999999999974 2.0999999999999996 M 16.699999999999974 2.0999999999999996 M 14.699999999999974 2.0999999999999996 L 10.699999999999974 2.0999999999999996 M 10.699999999999974 2.0999999999999996 M 8.699999999999974 2.0999999999999996 L 4.699999999999974 2.0999999999999996 M 4.699999999999974 2.0999999999999996 M 2.6999999999999744 2.0999999999999996 L 2.0999999999999996 2.0999999999999996 Z" stroke-miterlimit="10" stroke-width="2" opacity="0"/></g></g></g></g></g><g transform="translate(0,0) matrix(1,0,0,1,425,264.28203230275517)"><g><g transform="translate(0,0) scale(0.7,0.7)"><g><path fill="#CBD8DE" stroke="none" d="M 0 0 L 100 0 Q 100 0 100 0 L 100 100 Q 100 100 100 100 L 0 100 Q 0 100 0 100 L 0 0 Q 0 0 0 0 Z"/><g transform="scale(1.4285714285714286,1.4285714285714286)"><path fill="none" stroke="none" d="M 0 0 L 70 0 Q 70 0 70 0 L 70 70 Q 70 70 70 70 L 0 70 Q 0 70 0 70 L 0 0 Q 0 0 0 0 Z"/><path fill="none" stroke="#7F9EAD" d="M 0 0 M 0 0 L 70 0 Q 70 0 70 0 L 70 70 Q 70 70 70 70 L 0 70 Q 0 70 0 70 L 0 0 Q 0 0 0 0 Z" stroke-miterlimit="10" stroke-width="2"/></g></g><g><g transform="scale(1.4285714285714286,1.4285714285714286)"><path fill="rgb(0,0,0)" stroke="none" d="M 1.4 1.4 L 1.4 67.89999999999999 L 67.89999999999999 67.89999999999999 L 67.89999999999999 2.0999999999999996 L 2.0999999999999996 2.0999999999999996 Z" fill-opacity="0" opacity="0"/><path fill="none" stroke="#3C7626" d="M 1.4 1.4 M 1.4 1.4 L 1.4 5.4 M 1.4 5.4 M 1.4 7.4 L 1.4 11.4 M 1.4 11.4 M 1.4 13.4 L 1.4 17.4 M 1.4 17.4 M 1.4 19.4 L 1.4 23.4 M 1.4 23.4 M 1.4 25.4 L 1.4 29.4 M 1.4 29.4 M 1.4 31.4 L 1.4 35.4 M 1.4 35.4 M 1.4 37.4 L 1.4 41.4 M 1.4 41.4 M 1.4 43.4 L 1.4 47.4 M 1.4 47.4 M 1.4 49.4 L 1.4 53.4 M 1.4 53.4 M 1.4 55.4 L 1.4 59.4 M 1.4 59.4 M 1.4 61.4 L 1.4 65.4 M 1.4 65.4 M 1.4 67.4 L 1.4 67.89999999999999 L 4.900000000000015 67.89999999999999 M 4.900000000000015 67.89999999999999 M 6.900000000000015 67.89999999999999 L 10.900000000000015 67.89999999999999 M 10.900000000000015 67.89999999999999 M 12.900000000000015 67.89999999999999 L 16.900000000000013 67.89999999999999 M 16.900000000000013 67.89999999999999 M 18.900000000000013 67.89999999999999 L 22.900000000000013 67.89999999999999 M 22.900000000000013 67.89999999999999 M 24.900000000000013 67.89999999999999 L 28.900000000000013 67.89999999999999 M 28.900000000000013 67.89999999999999 M 30.900000000000013 67.89999999999999 L 34.90000000000001 67.89999999999999 M 34.90000000000001 67.89999999999999 M 36.90000000000001 67.89999999999999 L 40.90000000000001 67.89999999999999 M 40.90000000000001 67.89999999999999 M 42.90000000000001 67.89999999999999 L 46.90000000000001 67.89999999999999 M 46.90000000000001 67.89999999999999 M 48.90000000000001 67.89999999999999 L 52.90000000000001 67.89999999999999 M 52.90000000000001 67.89999999999999 M 54.90000000000001 67.89999999999999 L 58.90000000000001 67.89999999999999 M 58.90000000000001 67.89999999999999 M 60.90000000000001 67.89999999999999 L 64.9 67.89999999999999 M 64.9 67.89999999999999 M 66.9 67.89999999999999 L 67.89999999999999 67.89999999999999 L 67.89999999999999 64.89999999999998 M 67.89999999999999 64.89999999999998 M 67.89999999999999 62.89999999999998 L 67.89999999999999 58.89999999999998 M 67.89999999999999 58.89999999999998 M 67.89999999999999 56.89999999999998 L 67.89999999999999 52.89999999999998 M 67.89999999999999 52.89999999999998 M 67.89999999999999 50.89999999999998 L 67.89999999999999 46.89999999999998 M 67.89999999999999 46.89999999999998 M 67.89999999999999 44.89999999999998 L 67.89999999999999 40.89999999999998 M 67.89999999999999 40.89999999999998 M 67.89999999999999 38.89999999999998 L 67.89999999999999 34.89999999999998 M 67.89999999999999 34.89999999999998 M 67.89999999999999 32.89999999999998 L 67.89999999999999 28.899999999999977 M 67.89999999999999 28.899999999999977 M 67.89999999999999 26.899999999999977 L 67.89999999999999 22.899999999999977 M 67.89999999999999 22.899999999999977 M 67.89999999999999 20.899999999999977 L 67.89999999999999 16.899999999999977 M 67.89999999999999 16.899999999999977 M 67.89999999999999 14.899999999999977 L 67.89999999999999 10.899999999999977 M 67.89999999999999 10.899999999999977 M 67.89999999999999 8.899999999999977 L 67.89999999999999 4.899999999999977 M 67.89999999999999 4.899999999999977 M 67.89999999999999 2.8999999999999773 L 67.89999999999999 2.0999999999999996 L 64.69999999999997 2.0999999999999996 M 64.69999999999997 2.0999999999999996 M 62.699999999999974 2.0999999999999996 L 58.699999999999974 2.0999999999999996 M 58.699999999999974 2.0999999999999996 M 56.699999999999974 2.0999999999999996 L 52.699999999999974 2.0999999999999996 M 52.699999999999974 2.0999999999999996 M 50.699999999999974 2.0999999999999996 L 46.699999999999974 2.0999999999999996 M 46.699999999999974 2.0999999999999996 M 44.699999999999974 2.0999999999999996 L 40.699999999999974 2.0999999999999996 M 40.699999999999974 2.0999999999999996 M 38.699999999999974 2.0999999999999996 L 34.699999999999974 2.0999999999999996 M 34.699999999999974 2.0999999999999996 M 32.699999999999974 2.0999999999999996 L 28.699999999999974 2.0999999999999996 M 28.699999999999974 2.0999999999999996 M 26.699999999999974 2.0999999999999996 L 22.699999999999974 2.0999999999999996 M 22.699999999999974 2.0999999999999996 M 20.699999999999974 2.0999999999999996 L 16.699999999999974 2.0999999999999996 M 16.699999999999974 2.0999999999999996 M 14.699999999999974 2.0999999999999996 L 10.699999999999974 2.0999999999999996 M 10.699999999999974 2.0999999999999996 M 8.699999999999974 2.0999999999999996 L 4.699999999999974 2.0999999999999996 M 4.699999999999974 2.0999999999999996 M 2.6999999999999744 2.0999999999999996 L 2.0999999999999996 2.0999999999999996 Z" stroke-miterlimit="10" stroke-width="2" opacity="0"/></g></g></g></g></g><g transform="translate(0,0) matrix(1,0,0,1,283,148.78203230275517)"><g><g transform="translate(0,0) scale(0.63,0.4)"><g><path fill="#EEEEEE" stroke="none" d="M 100 50 A 50 50 0 1 0 99.99997500000207 50.04999999166668 Z"/><g transform="scale(1.5873015873015872,2.5)"><path fill="none" stroke="#434343" d="M 31.5 0 M 31.5 0 C 48.89696805 0 63 8.954306 63 20 C 63 31.045693999999997 48.89696805 40 31.5 40 C 14.103031950000002 40 0 31.045693999999997 0 20 C 0 8.954306 14.103031950000002 0 31.5 0 Z" stroke-miterlimit="10" stroke-width="2"/></g></g></g></g></g><g transform="translate(0,0) matrix(1,0,0,1,380,153.78203230275517)"><g><g transform="translate(0,0) scale(0.5,0.35)"><g><g transform="scale(2,2.857142857142857)"><path fill="#ea9999" stroke="none" d="M 0 0 L 50 35 L 0 35 L 0 0 Z"/><path fill="none" stroke="#434343" d="M 0 0 M 0 0 L 50 35 L 0 35 L 0 0 Z" stroke-miterlimit="10" stroke-width="2"/></g></g></g></g></g><g transform="translate(0,0) matrix(-0.2588190451025209,0.9659258262890683,-0.9659258262890683,-0.2588190451025209,518.3741780876217,154.1632199348226)"><g><g transform="translate(0,0) scale(0.5,0.35)"><g><g transform="scale(2,2.857142857142857)"><path fill="#6fa8dc" stroke="none" d="M 0 0 L 50 35 L 0 35 L 0 0 Z"/><path fill="none" stroke="#434343" d="M 0 0 M 0 0 L 50 35 L 0 35 L 0 0 Z" stroke-miterlimit="10" stroke-width="2"/></g></g></g></g></g><g transform="translate(0,0) matrix(1,0,0,1,432,275.6153656360886)"><g><g transform="translate(0,0) scale(0.5801142857142848,0.47)"><g><g transform="scale(1.7237982663514606,2.127659574468085)"><path fill="#b6d7a8" stroke="none" d="M 29.00571428571424 0 L 58.01142857142848 17.2333349 L 48.34285520914278 47 L 9.668573362285699 47 L 0 17.2333349 L 29.00571428571424 0 Z"/><path fill="none" stroke="#434343" d="M 29.00571428571424 0 M 29.00571428571424 0 L 58.01142857142848 17.2333349 L 48.34285520914278 47 L 9.668573362285699 47 L 0 17.2333349 L 29.00571428571424 0 Z" stroke-miterlimit="10" stroke-width="2"/></g></g></g></g></g><g transform="translate(0,0) matrix(-0.4999999999999997,0.8660254037844389,-0.8660254037844389,-0.4999999999999997,396.16025403784437,22.990381056766637)"><g><g transform="translate(0,0) scale(1.3,0.2)"><g><g transform="scale(0.7692307692307692,5)"><path fill="#CCC7BD" stroke="none" d="M 0 10 L 10 0 L 10 6 L 120 6 L 120 0 L 130 10 L 120 20 L 120 14 L 10 14 L 10 20 L 0 10 Z"/><path fill="none" stroke="#7E725A" d="M 0 10 M 0 10 L 10 0 L 10 6 L 120 6 L 120 0 L 130 10 L 120 20 L 120 14 L 10 14 L 10 20 L 0 10 Z" stroke-miterlimit="10" stroke-width="2"/></g></g></g></g></g><g transform="translate(0,0) matrix(0.5,0.8660254037844387,-0.8660254037844387,0.5,438.66025403784437,10.000000000000014)"><g><g transform="translate(0,0) scale(1.3,0.2)"><g><g transform="scale(0.7692307692307692,5)"><path fill="#CCC7BD" stroke="none" d="M 0 10 L 10 0 L 10 6 L 120 6 L 120 0 L 130 10 L 120 20 L 120 14 L 10 14 L 10 20 L 0 10 Z"/><path fill="none" stroke="#7E725A" d="M 0 10 M 0 10 L 10 0 L 10 6 L 120 6 L 120 0 L 130 10 L 120 20 L 120 14 L 10 14 L 10 20 L 0 10 Z" stroke-miterlimit="10" stroke-width="2"/></g></g></g></g></g><g transform="translate(0,0) matrix(0,1,-1,0,415,19.28203230275517)"><g><g transform="translate(0,0) scale(1.1,0.2)"><g><g transform="scale(0.9090909090909091,5)"><path fill="#CCC7BD" stroke="none" d="M 0 10 L 10.000000000000002 0 L 10.000000000000002 6 L 100 6 L 100 0 L 110.00000000000001 10 L 100 20 L 100 14 L 10.000000000000002 14 L 10.000000000000002 20 L 0 10 Z"/><path fill="none" stroke="#7E725A" d="M 0 10 M 0 10 L 10.000000000000002 0 L 10.000000000000002 6 L 100 6 L 100 0 L 110.00000000000001 10 L 100 20 L 100 14 L 10.000000000000002 14 L 10.000000000000002 20 L 0 10 Z" stroke-miterlimit="10" stroke-width="2"/></g></g></g></g></g><g transform="translate(0,0) matrix(0.5,0.8660254037844387,-0.8660254037844387,0.5,421.16025403784437,207.6313972081442)"><g><g transform="translate(0,0) scale(0.5,0.2)"><g><g transform="scale(2,5)"><path fill="#CCC7BD" stroke="none" d="M 0 10 L 10 0 L 10 6 L 40 6 L 40 0 L 50 10 L 40 20 L 40 14 L 10 14 L 10 20 L 0 10 Z"/><path fill="none" stroke="#7E725A" d="M 0 10 M 0 10 L 10 0 L 10 6 L 40 6 L 40 0 L 50 10 L 40 20 L 40 14 L 10 14 L 10 20 L 0 10 Z" stroke-miterlimit="10" stroke-width="2"/></g></g></g></g></g><g transform="translate(0,0) matrix(-0.2588190451025209,0.9659258262890683,-0.9659258262890683,-0.2588190451025209,494.8356391649411,217.551706227999)"><g><g transform="translate(0,0) scale(0.4,0.2)"><g><g transform="scale(2.5,5)"><path fill="#CCC7BD" stroke="none" d="M 0 10 L 10 0 L 10 6 L 30 6 L 30 0 L 40 10 L 30 20 L 30 14 L 10 14 L 10 20 L 0 10 Z"/><path fill="none" stroke="#7E725A" d="M 0 10 M 0 10 L 10 0 L 10 6 L 30 6 L 30 0 L 40 10 L 30 20 L 30 14 L 10 14 L 10 20 L 0 10 Z" stroke-miterlimit="10" stroke-width="2"/></g></g></g></g></g><g transform="scale(1,1) matrix(1,0,0,1,20,373.78203230275517) translate(2,0)"><text fill="rgb(37, 47, 52)" stroke="none" font-family="Arial" font-size="12px" font-style="normal" font-weight="normal" text-decoration="none" x="16" y="11">Monolith architecture</text></g><g transform="scale(1,1) matrix(1,0,0,1,330,380.78203230275517) translate(2,0)"><text fill="rgb(37, 47, 52)" stroke="none" font-family="Arial" font-size="12px" font-style="normal" font-weight="normal" text-decoration="none" x="5" y="11">Microservice architecture</text></g></g></svg>